<svg width="46" height="26" viewBox="0 0 46 26" fill="none" xmlns="http://www.w3.org/2000/svg" xmlns:xlink="http://www.w3.org/1999/xlink">
<path d="M40.28,24.148C41.236,25.144 42.819,25.176 43.815,24.22C44.811,23.264 44.843,21.681 43.887,20.685L40.28,24.148ZM22.083,1.583L23.887,-0.148C23.415,-0.639 22.764,-0.917 22.083,-0.917C21.403,-0.917 20.751,-0.639 20.28,-0.148L22.083,1.583ZM0.28,20.685C-0.676,21.681 -0.644,23.264 0.352,24.22C1.348,25.176 2.931,25.144 3.887,24.148L0.28,20.685ZM43.887,20.685L23.887,-0.148L20.28,3.315L40.28,24.148L43.887,20.685ZM20.28,-0.148L0.28,20.685L3.887,24.148L23.887,3.315L20.28,-0.148Z" transform="rotate(-180 22.083 12)" fill="#999999"/>
</svg>
