<svg width="25" height="14.3" viewBox="0 0 46 26" fill="none" xmlns="http://www.w3.org/2000/svg" xmlns:xlink="http://www.w3.org/1999/xlink">
<path d="M40.113,24.148C41.069,25.144 42.652,25.176 43.648,24.22C44.644,23.264 44.676,21.681 43.72,20.685L40.113,24.148ZM21.917,1.583L23.72,-0.148C23.249,-0.639 22.597,-0.917 21.917,-0.917C21.236,-0.917 20.585,-0.639 20.113,-0.148L21.917,1.583ZM0.113,20.685C-0.843,21.681 -0.811,23.264 0.185,24.22C1.181,25.176 2.764,25.144 3.72,24.148L0.113,20.685ZM43.72,20.685L23.72,-0.148L20.113,3.315L40.113,24.148L43.72,20.685ZM20.113,-0.148L0.113,20.685L3.72,24.148L23.72,3.315L20.113,-0.148Z" transform="rotate(-180 21.917 12)" fill="#FFFFFF"/>
</svg>
